<svg xmlns="http://www.w3.org/2000/svg" width="56" height="100" viewBox="0 0 56 100">
  <defs>
    <style>
      .cls-1 {
        fill: #2c93fb;
        opacity: 0.356;
      }

      .cls-2, .cls-3, .cls-4 {
        fill: #2c74fb;
      }

      .cls-2 {
        stroke: #fff;
        stroke-width: 2px;
      }

      .cls-5, .cls-7 {
        stroke: none;
      }

      .cls-6 {
        fill: none;
      }

      .cls-7 {
        fill: #fff;
      }
    </style>
  </defs>
  <g id="car" transform="translate(56) rotate(90)">
    <rect id="사각형_20" data-name="사각형 20" class="cls-1" width="100" height="56" rx="28"/>
    <rect id="사각형_185" data-name="사각형 185" class="cls-1" width="74" height="38" rx="19" transform="translate(13 9)"/>
    <g id="사각형_19" data-name="사각형 19" class="cls-2" transform="translate(41 20)">
      <rect class="cls-5" width="33" height="16" rx="8"/>
      <rect class="cls-6" x="1" y="1" width="31" height="14" rx="7"/>
    </g>
    <path id="다각형_3" data-name="다각형 3" class="cls-3" d="M7.622,3.091a3,3,0,0,1,4.756,0l3.907,5.08A3,3,0,0,1,13.907,13H6.093A3,3,0,0,1,3.715,8.171Z" transform="translate(26 38) rotate(-90)"/>
    <g id="다각형_2" data-name="다각형 2" class="cls-4" transform="translate(26 38) rotate(-90)">
      <path class="cls-5" d="M 13.90740966796875 11.99999809265137 L 6.092589855194092 11.99999809265137 C 5.313310146331787 11.99999809265137 4.642560005187988 11.58261871337891 4.298309803009033 10.8834981918335 C 3.954070091247559 10.18438816070557 4.032209873199463 9.398248672485352 4.507339954376221 8.78057861328125 L 8.414750099182129 3.700948476791382 C 8.79634952545166 3.204878568649292 9.374150276184082 2.920368432998657 10 2.920368432998657 C 10.62584972381592 2.920368432998657 11.20365047454834 3.204878568649292 11.58524990081787 3.700948476791382 L 15.49265956878662 8.78057861328125 C 15.96778964996338 9.398248672485352 16.04593086242676 10.18438816070557 15.70168972015381 10.8834981918335 C 15.35743999481201 11.58261871337891 14.68669033050537 11.99999809265137 13.90740966796875 11.99999809265137 Z"/>
      <path class="cls-7" d="M 10 3.920368194580078 C 9.816100120544434 3.920368194580078 9.468600273132324 3.971068382263184 9.207380294799805 4.31065845489502 L 5.299969673156738 9.390288352966309 C 4.957539558410645 9.835448265075684 5.112799644470215 10.27389907836914 5.195449829101562 10.44174861907959 C 5.27810001373291 10.60959815979004 5.530960083007812 10.99999809265137 6.09259033203125 10.99999809265137 L 13.90740966796875 10.99999809265137 C 14.46903991699219 10.99999809265137 14.72189998626709 10.60959815979004 14.80455017089844 10.44174861907959 C 14.88719940185547 10.27389907836914 15.04245948791504 9.835448265075684 14.70002937316895 9.390288352966309 L 10.79263019561768 4.3106689453125 C 10.53139972686768 3.971078872680664 10.1838903427124 3.920368194580078 10 3.920368194580078 M 10 1.920368194580078 C 10.88871288299561 1.920368194580078 11.77742481231689 2.31065845489502 12.37787055969238 3.091238021850586 L 16.28528022766113 8.170867919921875 C 17.80286979675293 10.14372825622559 16.39643096923828 12.99999809265137 13.90740966796875 12.99999809265137 L 6.09259033203125 12.99999809265137 C 3.603570938110352 12.99999809265137 2.19713020324707 10.14372825622559 3.714719772338867 8.170867919921875 L 7.622130393981934 3.091238021850586 C 8.222575187683105 2.31065845489502 9.111287117004395 1.920368194580078 10 1.920368194580078 Z"/>
    </g>
  </g>
</svg>
